<svg id="visual" viewBox="0 0 900 600" width="900" height="600" xmlns="http://www.w3.org/2000/svg" xmlns:xlink="http://www.w3.org/1999/xlink" version="1.1"><rect x="0" y="0" width="900" height="600" fill="#d8e3e9"></rect><path d="M381 600L401.3 580C421.7 560 462.3 520 472.5 480C482.7 440 462.3 400 475.7 360C489 320 536 280 528.8 240C521.7 200 460.3 160 455.2 120C450 80 501 40 526.5 20L552 0L900 0L900 20C900 40 900 80 900 120C900 160 900 200 900 240C900 280 900 320 900 360C900 400 900 440 900 480C900 520 900 560 900 580L900 600Z" fill="#4f82f7" stroke-linecap="round" stroke-linejoin="miter"></path></svg>